<?xml version="1.0" encoding="UTF-8" standalone="no"?>
<!-- Created with Inkscape (http://www.inkscape.org/) -->

<svg
   id="svg5"
   version="1.1"
   viewBox="0 0 210 297"
   height="297mm"
   width="210mm"
   inkscape:version="1.2.2 (732a01da63, 2022-12-09)"
   sodipodi:docname="ophir-islands.svg"
   xmlns:inkscape="http://www.inkscape.org/namespaces/inkscape"
   xmlns:sodipodi="http://sodipodi.sourceforge.net/DTD/sodipodi-0.dtd"
   xmlns="http://www.w3.org/2000/svg"
   xmlns:svg="http://www.w3.org/2000/svg">
  <sodipodi:namedview
     id="namedview7"
     pagecolor="#ffffff"
     bordercolor="#000000"
     borderopacity="0.25"
     inkscape:showpageshadow="2"
     inkscape:pageopacity="0.0"
     inkscape:pagecheckerboard="0"
     inkscape:deskcolor="#d1d1d1"
     inkscape:document-units="px"
     showgrid="true"
     showguides="true"
     inkscape:lockguides="false"
     inkscape:zoom="2.1241178"
     inkscape:cx="181.48711"
     inkscape:cy="156.53557"
     inkscape:window-width="1920"
     inkscape:window-height="1001"
     inkscape:window-x="1939"
     inkscape:window-y="1344"
     inkscape:window-maximized="1"
     inkscape:current-layer="layer1">
    <inkscape:grid
       type="xygrid"
       id="grid9" />
  </sodipodi:namedview>
  <defs
     id="defs2" />
  <g
     inkscape:label="Layer 1"
     inkscape:groupmode="layer"
     id="layer1">
    <path
       sodipodi:type="star"
       style="fill:#000080;fill-opacity:0.878963;stroke-width:0.264583"
       id="reference-hex"
       inkscape:flatsided="true"
       sodipodi:sides="6"
       sodipodi:cx="41.396797"
       sodipodi:cy="21.667259"
       sodipodi:r1="12.385261"
       sodipodi:r2="10.725951"
       sodipodi:arg1="0.52359878"
       sodipodi:arg2="1.0471976"
       inkscape:rounded="0"
       inkscape:randomized="0"
       d="m 52.122747,27.85989 -10.72595,6.19263 -10.72595,-6.192631 0,-12.38526 10.72595,-6.1926304 10.725951,6.1926304 z"
       transform="matrix(1.0681379,0,0,1.0681379,16.582749,13.724306)" />
    <path
       id="right_island"
       style="fill:#008000;fill-opacity:0.878963;stroke-width:0.282611"
       d="m 68.444801,28.807849 c -0.02842,0.03197 -0.05871,0.06151 -0.09612,0.08165 -0.278413,0.149915 -0.604149,0.198868 -0.880567,0.352433 -0.256649,0.142583 -0.449954,0.382987 -0.704866,0.52865 -0.124703,0.537111 -0.487807,0.06794 -0.704349,0.176216 -0.05252,0.02626 0.04152,0.134698 0,0.176218 -0.0534,0.0534 -0.586691,0.347656 -0.616501,0.351916 -0.319708,0.04567 -0.64598,0 -0.968933,0 -0.264233,0 -0.531555,0.04018 -0.792717,0 -0.129772,-0.01997 -0.227869,-0.134696 -0.352433,-0.176216 -0.266386,-0.0888 -1.792404,0.0106 -2.025716,0.08837 -0.170773,0.05692 -0.298509,0.169551 -0.440283,0.264067 -0.05462,0.03642 -0.151837,0.02741 -0.176216,0.08837 -0.02622,0.06556 0,0.5996 0,0.70435 0,1.107426 0.127121,2.102304 -0.616501,2.99465 -0.09398,0.112772 -0.144322,0.268253 -0.264583,0.352433 -0.721404,0.504984 -1.828327,0.352433 -2.642216,0.352433 -0.172767,0 -0.640202,-0.07626 -0.792716,0 -0.496938,0.248469 -0.718818,0.380339 -0.968933,0.880567 -0.211881,0.423764 0.325921,1.176752 0.616499,1.409216 0.153792,0.123033 0.341807,0.202303 0.528651,0.264583 0.139262,0.04642 0.358852,-0.122142 0.440283,0 0.102996,0.154501 0.09317,0.362052 0.176216,0.528133 0.277968,0.555936 0.577443,1.272287 0.968933,1.76165 0.432159,0.540199 0.908943,0.52865 1.497066,0.52865 0.358891,0 0.825281,0.05226 1.145151,-0.176217 0.135146,-0.09653 0.218115,-0.254753 0.352433,-0.352433 0.191429,-0.139222 0.429656,-0.207112 0.616499,-0.352433 0.08356,-0.06499 0.09153,-0.200557 0.176217,-0.264067 0.04698,-0.03523 0.118297,0.0097 0.176216,0 0.08283,-0.0138 0.573171,-0.175817 0.704351,-0.08837 0.319834,0.213223 0.597606,0.540736 0.881082,0.792716 0.109718,0.09753 0.256377,0.153127 0.351918,0.264583 0.08545,0.09969 0.09744,0.247394 0.176216,0.352434 0.117438,0.117437 0.234999,0.234478 0.352433,0.351916 0,0.02936 -0.0163,0.06394 0,0.08837 0.01723,0.212745 0.264353,0.146628 0.352433,0.264067 0.05571,0.07427 0.02221,0.198416 0.08785,0.264066 0.09284,0.09284 0.249908,0.09419 0.352433,0.176217 0.05127,0.04101 0.03585,0.136827 0.08837,0.176216 0.482896,0.362172 1.762532,0.175751 2.289783,0 0.228097,-0.07603 0.471885,-0.217466 0.704867,-0.264066 0.08637,-0.01728 0.182286,0.03271 0.264066,0 0.0771,-0.03084 0.117497,-0.117497 0.176217,-0.176217 0.08808,0 0.177186,0.01448 0.264066,0 0.229055,-0.03818 0.773647,-0.260382 0.968934,0 0.05571,0.07427 0.04008,0.184457 0.08785,0.264067 0.04273,0.07121 0.130156,0.107126 0.176216,0.176216 0.483911,0.725869 0.239501,0.479003 0.6165,1.233 0.319974,0.639948 0.02475,-0.05074 0.352433,0.4408 0.0764,0.114596 0.01971,0.425146 0.08837,0.528133 0.03642,0.05462 0.146341,0.02965 0.1757,0.08837 0.03245,0.0649 0.0563,0.116966 0.07648,0.163815 l 0.485243,-0.280086 V 30.958106 Z"
       inkscape:label="#right_island" />
    <path
       style="fill:#008000;fill-opacity:0.878963;stroke-width:0.290679"
       d="m 40.636994,31.426303 c 0.977781,-2.087286 -2.572824,-2.978306 -3.998098,-3.056323 -0.0753,-0.0041 -1.014455,-0.01604 -1.033991,0 -0.237481,0.194989 -0.444433,0.428758 -0.620394,0.679183 -0.07847,0.111684 0.03788,0.276899 0,0.407509 -0.05217,0.17992 -0.37403,0.732787 -0.48253,0.815019 -0.338645,0.256663 -0.955789,0.388929 -1.378654,0.203755 -0.444188,-0.194511 -0.5688,-0.481063 -1.171856,-0.339591 -0.280079,0.0657 -0.525418,0.240662 -0.75826,0.40751 -0.09292,0.06658 0,0.226394 0,0.339591 0,0.440413 -0.0052,0.865775 -0.137866,1.290448 -0.163292,0.522888 -0.387892,0.546796 -0.275731,1.15461 0.06779,0.367356 0.04308,0.791965 0.275731,1.086693 0.285642,0.36185 0.788848,0.486844 1.171857,0.7471 0.986681,0.670456 1.694445,1.26251 1.171856,2.512977 -0.09007,0.215531 -0.238866,0.402786 -0.344664,0.611265 -0.101206,0.199433 -0.163453,0.417671 -0.275731,0.611265 -0.932085,1.197807 0.129447,1.668128 0.352302,2.782417 -0.02916,0.34477 -0.06317,0.824496 0.137864,1.154611 0.159638,0.262148 -0.457784,1.039632 -0.287271,1.168865 0.103021,0.07808 0.404313,1.805865 1.459128,-0.218008 0.06441,-0.12358 0.276543,0.04092 0.413596,0.06792 1.203822,0.237222 -0.64616,-1.827178 1.001477,-1.782083 3.307835,0.09053 -1.228329,-0.01369 2.079038,-0.01369 1.373534,0 1.06844,2.16395 2.409396,1.809474 0.478046,-0.126369 1.968916,-1.616819 2.439631,-1.767551 1.160119,-0.37149 2.138191,2.335292 3.229922,1.756089 0.596904,-0.316682 0.348194,-0.308532 0.965057,-0.81502 0.215469,-0.176914 0.447058,-0.336184 0.689328,-0.475428 0.04838,-0.02781 0.191626,0.05168 0.206798,-0.06792 0.04284,-0.337718 0.05566,-0.678682 0.06893,-1.018775 0.02506,-0.641958 0.03627,-1.083145 -0.275731,-1.697957 -0.377228,-0.743353 -0.735984,-0.733228 -1.378654,-1.222529 -1.955938,-1.489164 0.327681,0.01853 -1.24079,-0.882939 -0.09924,-0.05704 -0.171141,-0.156914 -0.27573,-0.203754 -0.05535,-0.02479 -0.765785,-0.173503 -0.827193,-0.203755 -0.02055,-0.01014 0,-0.04528 0,-0.06792 0,-0.05233 0.04715,-0.644301 0.06893,-0.679183 0.08933,-0.143033 0.648593,-0.721629 0.758259,-1.018775 0.182748,-0.495162 0.0045,-1.054172 0.06893,-1.56212 0.05411,-0.426536 0.06247,-0.180438 0,-0.611265 -0.01301,-0.08965 0.03567,-0.188213 0,-0.271673 -1.26934,-2.970319 0.08714,0.441152 -1.03399,-1.630038 -0.131689,-0.243282 -0.03915,-0.827878 -0.413597,-0.950856 -0.473339,-0.155458 -0.710228,0.62041 -0.896126,0.815019 -0.15748,0.16486 -0.353409,0.292723 -0.551461,0.40751 -0.254831,0.147694 -0.915971,0.463335 -1.24079,0.543346 -0.01601,0.0039 -0.546086,0.02119 -0.55146,0 -0.174651,-0.688319 0.179838,-0.02656 -0.137866,-0.339592 -0.05842,-0.05756 -0.139716,-0.574571 -0.06893,-0.679183 0.07244,-0.107067 0.304382,-0.06792 0.413597,-0.06792 h 0.275731 c 0.02298,0 0.06893,-0.02264 0.06893,0 0,0.09335 -0.04596,0.181116 -0.06893,0.271673 z"
       id="center_island"
       sodipodi:nodetypes="scccccsscscccssscccsscssssssssscssscscscccssssccscssscs" />
    <path
       id="top-right-island"
       style="fill:#008000;fill-opacity:0.878963;stroke-width:0.282611"
       d="m 49.614082,4.6136229 -4.614705,2.6644364 c 0.06284,0.2467217 0.135955,0.4564634 0.185002,0.5606902 0.117938,0.2506118 0.302864,0.4643836 0.440283,0.7048663 0.162856,0.2849984 0.258203,0.6074477 0.440283,0.8805667 0.104278,0.156418 0.262412,0.275763 0.352433,0.440799 0.08892,0.1630135 0.0873,0.3651205 0.176217,0.5281325 0.162689,0.298264 0.679147,0.864109 0.968933,1.057301 0.04886,0.03257 0.119995,-0.01857 0.1757,0 0.118168,0.03939 0.168895,0.184323 0.264583,0.264066 0.144421,0.120349 0.356212,0.184288 0.440283,0.352433 0.0013,0.0027 0.01341,1.210656 0,1.233 -0.192256,0.320431 -0.493769,0.568506 -0.792716,0.792716 -0.260492,0.19537 0.185637,-0.573288 -0.264066,0.176217 -0.218659,0.364435 0.07905,0.2156 -0.264583,0.616499 -0.09553,0.111457 -0.266592,0.144614 -0.351918,0.264068 -0.07036,0.0985 -0.03423,0.244161 -0.08837,0.352433 -0.08407,0.168144 -0.292984,0.261938 -0.352433,0.440283 -0.05653,0.169582 0,0.435765 0,0.616499 0,0.906749 -0.01294,1.003427 0.528649,1.76165 0.07632,0.106843 0.08337,0.259591 0.176218,0.352433 0.02077,0.02076 0.06492,-0.01834 0.08785,0 0.129688,0.103751 0.19635,0.295676 0.352433,0.352434 0.193143,0.07023 0.410982,0 0.616499,0 h 1.14515 c 0.707553,0 1.91058,0.128756 2.554366,0 0.05758,-0.01151 0,-0.117498 0,-0.176216 v -2.378151 c 0,-0.231863 -0.05906,-0.537563 0.528133,-0.176216 0.265798,0.163567 0.395815,0.483666 0.616501,0.70435 1.210459,1.008717 -0.07793,-0.149919 0.881082,0.968933 0.324255,0.378296 0.745534,0.668235 1.056784,1.0573 0.11509,0.143863 0.03136,0.511211 0.176216,0.70435 0.09788,0.130505 0.802364,0.863187 0.880566,0.880565 0.456756,0.101501 1.452171,0.253165 1.850017,-0.08785 0.1261,-0.108084 0.264411,-0.211597 0.352433,-0.352434 0.09819,-0.157107 0.493814,-1.501694 0.528134,-1.673283 0.02879,-0.143945 -0.0182,-0.29462 0,-0.440282 0.04385,-0.350839 0.2867,-0.640268 0.352433,-0.968933 0.01728,-0.08637 -0.03271,-0.182806 0,-0.264583 0.03084,-0.0771 0.117497,-0.116982 0.176216,-0.175701 0.232047,-0.232044 0.494428,-0.555722 0.792716,-0.704866 0.108273,-0.05414 0.239089,-0.04534 0.352433,-0.08785 0.184409,-0.06915 0.337065,-0.216816 0.528134,-0.264583 0.05696,-0.01424 0.12051,0.01857 0.176217,0 0.01222,-0.0041 0.02294,-0.01027 0.03307,-0.01757 v -4.34392 z" />
    <path
       id="top-left-island"
       style="fill:#008000;fill-opacity:0.878963;stroke-width:0.264583"
       d="M 26.713918,4.7902488 15.257254,11.404832 v 4.209045 c 0.07423,0.09328 0.08954,0.227591 0.156579,0.328145 0.150147,0.22522 0.359041,0.405134 0.528133,0.6165 0.04106,0.05132 0.467991,0.78979 0.52865,0.704867 0.137581,-0.192613 0.185059,-0.449125 0.352434,-0.6165 0.05608,-0.05608 0.886086,-0.443302 1.056783,-0.52865 0.05252,-0.02626 0.134696,0.04152 0.176216,0 0.04642,-0.04642 0.02913,-0.146857 0.08785,-0.176217 0.01764,-0.0088 0.880636,-0.08821 0.881083,-0.08785 0.43372,0.346975 0.838057,0.97356 0.968933,1.497066 0.176157,0.704625 -0.08808,0.08826 0,0.52865 0.03101,0.155034 0.14521,0.285248 0.176217,0.440283 0.05765,0.288265 -0.02058,0.443158 0.1757,0.704866 0.05907,0.07876 0.300564,0.124348 0.352433,0.176217 0.02076,0.02076 -0.02785,0.07855 0,0.08785 0.167117,0.05571 0.353854,-0.02185 0.52865,0 0.139219,0.0174 1.579716,0.181927 1.673283,0.08837 0.09813,-0.09813 0.166451,-0.518887 0.264583,-0.617017 0.07485,-0.07485 0.189215,-0.10085 0.264067,-0.1757 0.202416,-0.202417 -0.02277,-0.176216 0.176216,-0.176216 0.341904,0 0.885688,0.0565 1.14515,0.264066 0.181344,0.145075 0.228056,0.430711 0.351916,0.6165 0.182355,0.273533 0.252944,0.279913 0.352434,0.52865 0.03448,0.0862 0.07016,0.173027 0.08837,0.264066 0.01151,0.05758 -0.03257,0.127357 0,0.176217 0.03642,0.05462 0.13631,0.03533 0.1757,0.08785 0.04072,0.0543 0.04954,0.310203 0.176217,0.352433 0.353495,0.117832 1.215678,0.02308 1.585433,-0.08785 0.276962,-0.08309 0.552123,-0.192037 0.792716,-0.352433 0.112537,-0.07502 0.133977,-0.334687 0.176217,-0.440283 0.04876,-0.121909 0.140146,-0.226187 0.176216,-0.352433 0.114616,-0.401154 -0.147372,-1.411569 -0.264066,-1.76165 -0.04152,-0.124562 -0.138487,-0.226671 -0.176217,-0.352433 -0.117377,-0.391245 -0.05662,-0.755934 -0.176216,-1.144633 -0.252043,-0.819142 -0.784697,-1.474038 -1.056783,-2.2903 -0.06176,-0.185285 0.02792,-0.296066 -0.08837,-0.52865 -0.07516,-0.150324 0.02536,-1.402546 0.08837,-1.497066 0.150145,-0.22522 0.377987,-0.39128 0.528133,-0.6165 0.0515,-0.07725 0.03687,-0.186816 0.08837,-0.264066 0.01628,-0.02443 0.05849,0 0.08785,0 0.02936,-0.05872 0.06761,-0.113937 0.08837,-0.176217 0.01857,-0.05571 -0.04152,-0.134697 0,-0.176217 0.02076,-0.02076 0.07023,0.02349 0.08785,0 0.270234,-0.360368 0.135016,-0.429403 0.264067,-0.8810825 0.02281,-0.07985 0.139076,-0.101946 0.176216,-0.176216 0.07047,-0.140932 0.0198,-0.674864 0.08837,-0.8805667 0.03347,-0.1004246 0.136907,-0.1657817 0.176217,-0.2640666 0.150649,-0.376624 -0.180753,-0.9598613 0,-1.3213664 0.201456,-0.4029124 0.165665,-0.672561 0.442867,-1.0355957 z" />
    <path
       id="left-island"
       style="fill:#008000;fill-opacity:0.878963;stroke-width:0.264583"
       d="M 9.1640854,27.994 4.3354396,30.781944 V 44.01111 l 3.7248372,2.150773 c 0.014125,-0.0034 0.028442,-0.0064 0.042891,-0.0088 0.4133062,-0.06888 0.3974949,-0.02348 0.3214275,0.02119 0.1154461,-0.04806 0.3230765,-0.130649 0.7353556,-0.285254 0.3853538,-0.115607 0.7197661,0.189056 1.0572997,0.264066 0.143302,0.03185 0.301019,-0.04642 0.440283,0 0.224557,0.07485 0.391944,0.277584 0.6165,0.352434 0.03812,0.0127 1.113067,0.03998 1.233,0 0.407686,-0.135895 -0.07476,-1.686891 0.440283,-2.201933 0.09403,-0.09403 0.531928,-0.647217 0.704867,-0.704867 0.111411,-0.03714 0.247393,0.05252 0.352433,0 0.02626,-0.01313 -0.02255,-0.06907 0,-0.08785 0.162643,-0.135535 0.368802,-0.213018 0.528133,-0.352433 0.261687,-0.228978 0.458472,-0.634687 0.704867,-0.881083 0.347959,-0.347959 1.084409,-0.583902 1.320849,-1.056783 0.01827,-0.03654 0.02881,-0.401863 0,-0.440283 -0.318721,-0.424963 -0.880566,-0.820424 -0.880566,-1.409217 0,-0.276473 -0.05643,-1.000352 0.176216,-1.232999 0.04152,-0.04152 0.120511,0.01857 0.176217,0 0.345244,-0.11508 0.388067,-0.567788 0.440283,-0.881083 0.04495,-0.269671 -0.315613,-1.27266 -0.440283,-1.497067 -0.06049,-0.108886 -0.208362,-0.153172 -0.264067,-0.264583 -0.08808,-0.176157 -0.191438,-0.345269 -0.264583,-0.528133 -0.02181,-0.05452 0.03257,-0.127357 0,-0.176217 -0.05872,-0.08808 -0.189214,-0.101367 -0.264066,-0.176216 -0.153728,-0.153728 -0.07501,-0.04881 -0.176217,-0.352434 -0.06613,-0.08266 -0.197938,-0.09356 -0.264067,-0.176216 -0.058,-0.0725 -0.02272,-0.198417 -0.08837,-0.264067 -0.09284,-0.09285 -0.234996,-0.117497 -0.352434,-0.176217 -0.02936,0 -0.06396,0.01707 -0.08785,0 -0.186592,-0.13328 -0.340117,-0.309761 -0.528649,-0.440283 -0.635492,-0.439956 -1.845787,-0.78529 -2.201933,-1.497583 -0.124652,-0.249304 0.06517,-0.801603 0.08837,-1.056783 0.03971,-0.436858 0.05559,-1.228553 0,-1.673283 -0.01808,-0.144621 -0.197055,-0.174543 -0.264583,-0.264583 -0.05571,-0.07427 -0.0222,-0.198417 -0.08785,-0.264067 -0.04152,-0.04152 -0.118758,0.01209 -0.176216,0 C 10.596076,28.34364 10.101281,28.208067 9.6007513,28.096836 9.4548225,28.064408 9.3092577,28.029747 9.1640854,27.994 Z M 8.4245957,46.174286 c -0.2045597,0.08516 -0.079105,0.04645 0,0 z" />
    <path
       id="bottom-left-island"
       style="fill:#008000;fill-opacity:0.878963;stroke-width:0.264583"
       d="m 23.72237,54.067344 c -0.01264,0.0019 -0.02264,0.0061 -0.02946,0.01292 -0.02076,0.02076 0.02443,0.07155 0,0.08785 -0.07725,0.0515 -0.189792,0.03266 -0.264066,0.08837 -0.05252,0.03939 -0.03659,0.13469 -0.08785,0.1757 -0.102527,0.08203 -0.254298,0.08899 -0.352433,0.176216 -0.02079,0.01848 -0.601464,0.620378 -0.704867,0.792717 -0.151213,0.252023 -0.207605,0.510408 -0.264066,0.792716 -0.01152,0.05758 0.02626,0.123697 0,0.176217 -0.03714,0.07427 -0.13908,0.101947 -0.176217,0.176216 -0.02626,0.05252 0.01424,0.119257 0,0.176217 -0.01592,0.06369 -0.05849,0.117497 -0.08785,0.176217 -0.02936,0.02936 -0.07524,0.04846 -0.08837,0.08785 -0.069,0.207009 -0.05659,0.505489 -0.176216,0.704866 -0.03378,0.0563 -0.129796,0.04143 -0.176217,0.08785 -0.158105,0.158104 -0.134105,0.434551 -0.264067,0.6165 -0.146797,0.205515 -0.437913,0.261694 -0.616499,0.440283 -0.04642,0.04642 -0.03207,0.142437 -0.08837,0.176217 -0.103801,0.06228 -0.237077,0.05009 -0.351917,0.08837 -0.149991,0.05 -0.285943,0.141916 -0.440283,0.176216 -0.292176,0.06493 -1.273729,-0.111927 -1.497583,0 -0.874883,0.437442 -1.7872,0.851096 -2.622579,1.386479 v 2.724898 l 11.456665,6.614583 4.283459,-2.473234 c 0.03303,-0.07864 0.06491,-0.157582 0.09405,-0.237711 0.03879,-0.106669 0.03517,-1.092302 0,-1.233 -0.183255,-0.733119 0.006,0.106428 -0.176216,-0.440283 -0.04404,-0.132117 0.08808,-0.08843 0,-0.264583 -0.01313,-0.02627 -0.06709,0.02077 -0.08785,0 -0.27327,-0.273269 -0.786045,-0.896985 -0.6165,-1.32085 0.01076,-0.02691 0.193387,-0.5051 0.264067,-0.52865 0.279268,-0.09309 0.50127,-0.0067 0.616499,-0.352433 0.103053,-0.309158 0,-1.142478 0,-1.497066 0,-0.41954 0.09684,-1.999782 0,-2.2903 -0.02537,-0.0761 -0.522133,-0.69595 -0.528133,-0.70435 -0.203281,-0.284593 -0.247228,-0.423443 -0.52865,-0.704866 -0.07485,-0.07485 -0.189216,-0.101367 -0.264066,-0.176217 -0.04642,-0.04642 -0.03375,-0.139797 -0.08837,-0.176216 -0.04886,-0.03257 -0.118297,0.0097 -0.176216,0 -0.119405,-0.0199 -0.23448,-0.05849 -0.351917,-0.08785 0,-0.02936 0.02076,-0.0676 0,-0.08837 -0.06228,-0.06228 -0.176503,0 -0.264583,0 h -1.497067 c -0.383495,0 -1.306864,0.107361 -1.585433,-0.264067 -0.173129,-0.230832 -0.02726,-0.37207 -0.08837,-0.6165 -0.03835,-0.153383 -0.145207,-0.285247 -0.176217,-0.440283 -0.02879,-0.143946 0.02413,-0.295481 0,-0.440283 -0.02895,-0.17373 -0.358953,-0.243994 -0.440283,-0.352433 -0.05571,-0.07427 -0.04633,-0.181544 -0.08785,-0.264584 -0.09052,-0.181055 -0.190138,-0.0134 -0.352433,-0.175699 -0.06565,-0.06565 -0.04633,-0.181544 -0.08785,-0.264584 -0.03874,-0.07748 -0.838252,-0.569631 -1.027844,-0.541052 z" />
    <path
       id="bottom-right-island"
       style="fill:#008000;fill-opacity:0.878963;stroke-width:0.264583"
       d="m 54.754584,55.064699 c -0.191361,-0.01051 -0.783224,0.09907 -0.943095,0.135392 -0.154179,0.03503 -0.288305,0.145381 -0.445451,0.162781 -0.105213,0.01164 -0.202202,-0.08338 -0.307991,-0.07958 -0.601312,0.02153 -1.859226,0.561385 -2.182296,1.12758 -0.04115,0.07212 0.0068,0.168671 -0.01395,0.249081 -0.121756,0.472381 0.105546,0.355507 0.08372,0.752925 -0.0036,0.06555 -0.07605,0.117385 -0.07235,0.182935 0.01247,0.223247 0.226717,0.412361 0.214457,0.63562 -0.0051,0.0927 -0.110556,0.153146 -0.137976,0.241846 -0.03474,0.112368 0.06605,0.459646 -0.151928,0.490926 -0.285577,0.04098 -0.506951,-0.545946 -0.712102,-0.663009 -0.263229,-0.150199 -0.134687,0.02193 -0.42478,-0.210323 -0.06875,-0.05506 -0.103813,-0.147487 -0.176733,-0.196887 -0.256513,-0.173721 -1.088693,-0.542144 -1.399398,-0.638204 -0.213465,-0.066 -0.362819,0.01403 -0.563273,0.03152 -0.12409,0.01082 -0.280334,-0.103781 -0.373104,-0.02067 -0.03089,0.02771 -0.0044,0.08308 -0.0067,0.12454 -0.0068,0.124372 -0.01335,0.248727 -0.02015,0.373104 -0.01112,0.202473 0.01182,0.260055 -0.0863,0.432015 -0.01454,0.02551 -0.06983,0.02934 -0.06563,0.05839 0.01319,0.0919 0.115688,0.163099 0.110588,0.255799 -0.05292,0.96353 -0.172893,0.279536 -0.36897,1.040246 -0.04145,0.160823 0.01878,0.337593 -0.02739,0.497128 -0.03365,0.116283 -0.149895,0.192272 -0.203605,0.300756 -0.08739,0.176498 -0.125831,0.374767 -0.217041,0.549321 -0.04744,0.09079 -0.446183,0.474555 -0.525033,0.470255 -0.06555,-0.0036 -0.117385,-0.06875 -0.182935,-0.07235 -0.151484,-0.0083 -0.174458,0.100429 -0.314709,0.04496 -0.172668,-0.06829 -0.300542,-0.245362 -0.483691,-0.275952 -0.104407,-0.01744 -0.211685,0.07138 -0.314193,0.04496 -0.380169,-0.09799 -0.678497,-0.352577 -1.033529,-0.492993 -0.194428,-0.07689 -0.374077,0.241096 -0.576709,0.280086 -0.103951,0.02 -0.215563,0.0065 -0.314192,0.04496 -0.279553,0.108986 -0.382839,0.224924 -0.583427,0.404626 -0.08747,0.07836 -0.340877,0.147658 -0.262517,0.235128 0.131419,0.146692 0.395574,0.09447 0.549321,0.217558 0.6329,0.506713 0.439899,0.305022 1.150834,0.624251 0.332279,0.149201 0.545989,0.374562 0.908988,0.486792 0.07403,0.02289 0.466804,-0.05075 0.563274,-0.03152 0.09105,0.01815 0.150785,0.119827 0.241845,0.137977 0.143964,0.02869 0.283953,-0.185205 0.438733,-0.03824 0.16578,0.04273 0.03444,0.344863 0.09663,0.504362 0.04266,0.109419 0.192468,0.153103 0.235128,0.262516 0.05333,0.136771 -4.7e-4,0.297133 0.03824,0.438733 0.01548,0.05664 0.08797,0.08017 0.117823,0.130742 0.20303,0.344035 0.178571,0.482757 0.201021,0.8847 0.0037,0.06555 0.05528,0.124103 0.05168,0.189653 -0.06721,1.223636 -0.578718,2.253373 -1.804541,2.17041 l 4.536674,2.619478 11.456665,-6.614583 v -4.704106 c -0.341725,-0.408029 -0.654882,-0.747378 -0.809769,-0.84491 -0.280859,-0.176855 -0.409113,-0.249172 -0.464055,-0.275952 0.0035,-0.01705 -0.05707,-0.100073 -0.372587,-0.393774 -0.331175,-0.30828 -0.729789,-0.428568 -1.085205,-0.683163 -0.240417,-0.172207 -0.697159,-0.782841 -0.947229,-0.925524 -0.14869,-0.08484 -0.341722,-0.06656 -0.490409,-0.151412 -0.268544,-0.153228 -0.236483,-0.325166 -0.667143,-0.348816 -0.105697,-0.0058 -0.209782,0.06292 -0.314193,0.04548 -0.904851,-0.151163 0.499134,-0.159968 -0.54932,-0.217558 z" />
    <path
       style="fill:#483737;stroke-width:0.26458333;stroke-dasharray:none"
       d="m 101.14395,11.708782 c -3.643813,0.160915 -7.183898,-0.498246 -10.836852,-0.498246 -0.456726,0 -0.940059,-0.153613 -1.370177,0 -0.579458,0.20695 -0.643024,3.299766 -0.498247,4.11053 0.151641,0.849187 0.640763,2.509462 0.996492,3.487723 0.803714,2.210213 0.189492,1.37169 2.366669,2.615791 0.290645,0.166083 0.977789,0.180676 0.871932,0.498247 -0.411279,1.233837 -4.739884,0.203296 -4.608777,1.121053 0.365543,2.558788 2.596464,4.237249 2.989477,6.726322 0.05828,0.369112 0.08106,0.756267 0,1.121053 -0.08871,0.399193 -0.36893,0.73311 -0.498245,1.121055 -0.344512,1.033532 -0.564036,2.30413 0.871929,2.989475 2.197976,1.049035 7.633676,0.747371 9.715799,0.747371 1.4117,0 2.82339,0 4.23509,0 0.74737,0 1.49474,0 2.24211,0 0.16608,0 0.35583,0.08545 0.49825,0 0.11258,-0.06755 0.10876,-0.24334 0.12456,-0.373687 0.15063,-1.24273 0.24703,-2.491441 0.37368,-3.736845 0.12247,-1.204307 0.39696,-2.401986 0.37368,-3.612283 -0.6263,-3.601233 -0.49824,-1.895609 -0.49824,-5.107021 0,-0.78889 0,-1.57778 0,-2.36667 0,-0.178933 -0.4423,-0.521583 0.12456,-0.622808 2.4526,-0.437964 2.86833,0.06922 4.8579,-0.622807 1.03477,-0.359921 1.26725,-0.297636 1.37018,-1.121054 0.0206,-0.164799 0.087,-0.356801 0,-0.498246 -0.26204,-0.425806 -0.73151,-0.697077 -0.99649,-1.121053 -0.36427,-0.582819 -0.68662,-1.206591 -0.87194,-1.868423 -0.19072,-0.681167 0.36471,-1.453081 -0.37368,-1.868423 -2.19351,-1.233848 -2.44686,-0.870156 -5.60527,-0.996492 -0.74677,-0.02987 -1.49529,-0.02872 -2.24211,0 -0.3345,0.01287 -0.66174,0.124561 -0.99649,0.124561 -0.1969,0 0.0522,-0.124561 0.24913,-0.124561"
       id="darkpatch" />
  </g>
</svg>
