<?xml version="1.0" encoding="UTF-8" standalone="no"?>
<!-- Created with Inkscape (http://www.inkscape.org/) -->

<svg
   width="50"
   height="50"
   viewBox="0 0 13.229167 13.229167"
   version="1.1"
   id="svg1"
   inkscape:version="1.3.2 (1:1.3.2+202311252150+091e20ef0f)"
   sodipodi:docname="favor.svg"
   xmlns:inkscape="http://www.inkscape.org/namespaces/inkscape"
   xmlns:sodipodi="http://sodipodi.sourceforge.net/DTD/sodipodi-0.dtd"
   xmlns="http://www.w3.org/2000/svg"
   xmlns:svg="http://www.w3.org/2000/svg">
  <sodipodi:namedview
     id="namedview1"
     pagecolor="#ffffff"
     bordercolor="#000000"
     borderopacity="0.25"
     inkscape:showpageshadow="2"
     inkscape:pageopacity="0.0"
     inkscape:pagecheckerboard="0"
     inkscape:deskcolor="#d1d1d1"
     inkscape:document-units="px"
     inkscape:zoom="5.2825737"
     inkscape:cx="28.4899"
     inkscape:cy="17.889007"
     inkscape:window-width="1920"
     inkscape:window-height="1009"
     inkscape:window-x="0"
     inkscape:window-y="0"
     inkscape:window-maximized="1"
     inkscape:current-layer="layer1" />
  <defs
     id="defs1" />
  <g
     inkscape:label="Layer 1"
     inkscape:groupmode="layer"
     id="layer1">
    <path
       style="fill:#aa0000;fill-opacity:1;stroke:#850c03;stroke-width:0.52916668;stroke-opacity:1;stroke-dasharray:none"
       d="m 0.19677687,5.9012201 c -0.16860075,0.595859 -0.0362021,1.0713252 0.091109,1.5488195 0.1908837,0.6908984 0.12969664,1.3817864 0.81996423,2.0726848 1.3631766,0.8089426 2.4167832,1.3083116 4.5097997,2.8470996 0.3689899,0.385659 0.8562401,0.239162 1.3438296,0.09113 L 9.0113881,12.187629 C 10.118915,11.846929 10.993822,11.207165 11.67627,10.319937 11.951356,9.87905 12.266301,9.5976035 12.427906,8.7027861 V 7.9055938 C 12.981142,7.3691916 13.312645,6.8169424 13.020098,6.2201216 13.17744,5.3475124 13.165348,4.5152446 12.063475,3.9424423 11.548044,3.4604798 11.303724,2.8903488 10.970191,2.1658537 11.164515,2.3113505 9.3218976,-0.53152854 7.6220038,0.75369751 7.1394941,0.94496625 6.5556415,0.86598058 5.8909711,0.57148007 5.2610425,-0.08834544 4.4385504,0.26277725 3.5677422,0.86757322 2.5414869,1.3804849 1.6684044,1.9400057 2.0189196,2.871937 2.1713804,3.9113792 1.4909041,4.3101045 0.88008099,4.7624007 Z"
       id="path1109"
       sodipodi:nodetypes="cccccccccccccccccc" />
    <ellipse
       style="fill:none;stroke:#850c03;stroke-width:0.52916668;stroke-opacity:1;stroke-dasharray:none"
       id="path1163"
       cx="6.82481"
       cy="6.3339844"
       rx="4.2826657"
       ry="4.0321212" />
    <path
       id="temple"
       style="fill:#850c03;fill-opacity:1;stroke-width:0.14437"
       d="M 3.666426,3.3645375 3.4931631,9.2381477 H 10.182101 L 9.8849962,3.3645375 H 9.1663623 v 2.167733 H 9.1218908 A 2.4031318,2.26084 0 0 0 6.8374913,3.9706057 2.4031318,2.26084 0 0 0 4.5533854,5.5322705 h -0.044472 v -2.167733 z" />
  </g>
</svg>
