<?xml version="1.0" encoding="UTF-8" standalone="no"?>
<!-- Created with Inkscape (http://www.inkscape.org/) -->

<svg
   width="50"
   height="50"
   viewBox="0 0 13.229167 13.229167"
   version="1.1"
   id="svg1"
   inkscape:version="1.3.2 (1:1.3.2+202311252150+091e20ef0f)"
   sodipodi:docname="vp.svg"
   xmlns:inkscape="http://www.inkscape.org/namespaces/inkscape"
   xmlns:sodipodi="http://sodipodi.sourceforge.net/DTD/sodipodi-0.dtd"
   xmlns="http://www.w3.org/2000/svg"
   xmlns:svg="http://www.w3.org/2000/svg">
  <sodipodi:namedview
     id="namedview1"
     pagecolor="#ffffff"
     bordercolor="#000000"
     borderopacity="0.25"
     inkscape:showpageshadow="2"
     inkscape:pageopacity="0.0"
     inkscape:pagecheckerboard="0"
     inkscape:deskcolor="#d1d1d1"
     inkscape:document-units="px"
     inkscape:zoom="5.2825737"
     inkscape:cx="28.4899"
     inkscape:cy="17.889007"
     inkscape:window-width="1920"
     inkscape:window-height="1009"
     inkscape:window-x="0"
     inkscape:window-y="0"
     inkscape:window-maximized="1"
     inkscape:current-layer="layer1" />
  <defs
     id="defs1" />
  <g
     inkscape:label="Layer 1"
     inkscape:groupmode="layer"
     id="layer1">
    <circle
       style="fill:#e5d280;fill-opacity:1;stroke-width:0.187564"
       id="path49"
       cx="6.6145835"
       cy="6.6145835"
       r="6.6145835" />
    <path
       style="fill:#54741a;fill-opacity:1;fill-rule:evenodd;stroke:none;stroke-width:0.0369702"
       d="M 6.701383,13.069249 C 5.7760436,13.147813 5.0169957,12.532336 4.2554613,12.033854 H 5.0300506 C 5.4810054,11.231925 4.9826779,11.09449 4.2985057,11.087158 4.0955147,11.794918 3.6719772,11.546996 3.3087605,11.5605 2.7178272,11.575725 2.3172152,11.421861 2.7493381,10.527735 2.7328326,9.9482184 2.3420278,9.7965374 1.9317374,9.6670944 l -0.8176116,0.043 C 1.3879311,9.6024069 1.6195501,9.194075 1.5014256,8.8064249 1.2695708,8.4358278 1.0516925,8.0512508 1.1571592,7.3433368 0.71495061,7.4266812 0.52357784,7.2313005 0.59773679,6.7408854 c 0.0627018,-0.4392912 0.10685962,-0.8972148 0,-1.5061232 C 0.7262257,4.6186129 1.1910928,4.7713368 1.716571,5.0626303 L 1.5014256,3.5565072 2.6202489,3.0831575 3.0075383,3.513477 3.9112163,3.040122 4.3845724,3.1692243 3.997283,3.5995427 3.8251501,4.5462451 3.2226943,4.7614077 2.8784492,5.148696 c -0.7164218,1.2723419 -0.1119192,1.3888846 0,1.9364421 0.1928833,-0.055145 1.0473977,0.3728529 0.6885116,0.5163846 -0.3277819,0.1310936 -0.093034,0.903673 0.042981,0.903673 0.3155637,-0.1844838 0.6311377,0.028834 0.9467118,0.1721324 0.6489403,0.3675868 0.5767,0.8553702 0.5594115,1.3339909 0.06163,0.416373 0.1384784,0.820363 0.8176116,0.731552 0.3797864,-0.09721 0.5271821,0.0043 0.7676755,0.02712 z"
       id="path11"
       sodipodi:nodetypes="cccccccccccccccccccccccscccccc"
       inkscape:label="half_wreath" />
    <path
       style="fill:#54741a;fill-opacity:1;fill-rule:evenodd;stroke:none;stroke-width:0.0369702"
       d="m 6.701383,13.069249 c 0.9253395,0.07857 1.6843873,-0.536913 2.4459218,-1.035395 H 8.3727154 c -0.4509547,-0.801929 0.047372,-0.939364 0.731545,-0.946696 0.2029909,0.70776 0.6265285,0.459838 0.9897456,0.473342 0.590933,0.01522 0.991545,-0.138639 0.559423,-1.032765 0.01651,-0.5795166 0.40731,-0.7311976 0.8176,-0.8606406 l 0.817611,0.043 C 12.014836,9.6024065 11.783217,9.194075 11.901341,8.8064249 c 0.231855,-0.3705971 0.449733,-0.7551741 0.344266,-1.4630881 0.442209,0.083344 0.633581,-0.1120363 0.559423,-0.6024514 -0.0627,-0.4392912 -0.106861,-0.8972148 0,-1.5061232 C 12.67654,4.6186129 12.211674,4.7713368 11.686196,5.0626303 L 11.901341,3.5565072 10.782518,3.0831575 10.395228,3.513477 9.4915498,3.040122 9.0181936,3.1692243 9.405483,3.5995427 9.577616,4.5462451 10.180072,4.7614077 10.524317,5.148696 c 0.716422,1.2723419 0.11192,1.3888846 0,1.9364421 C 10.331434,7.0299941 9.4769191,7.457991 9.8358053,7.6015227 10.163588,7.7326163 9.9288383,8.5051957 9.7928243,8.5051957 9.4772606,8.3207119 9.1616865,8.5340293 8.8461124,8.6773281 8.197172,9.0449149 8.2694123,9.5326983 8.286701,10.011319 c -0.06163,0.416373 -0.1384786,0.820363 -0.8176117,0.731552 -0.3797864,-0.09721 -0.5271821,0.0043 -0.7676755,0.02712 z"
       id="path48"
       sodipodi:nodetypes="cccccccccccccccccccccccscccccc"
       inkscape:label="half_wreath" />
  </g>
</svg>
